<?xml version="1.0" encoding="iso-8859-1"?>
<!-- Uploaded to: SVG Repo, www.svgrepo.com, Generator: SVG Repo Mixer Tools -->
<svg fill="#000000" height="800px" width="800px" version="1.1" id="Capa_1" xmlns="http://www.w3.org/2000/svg" xmlns:xlink="http://www.w3.org/1999/xlink" 
	 viewBox="0 0 611.999 611.999" xml:space="preserve">
<g>
	<g>
		<path d="M110.657,296.63c-4.493,0-8.721,1.75-11.899,4.928c-3.178,3.178-4.928,7.404-4.928,11.899
			c0,4.493,1.75,8.719,4.928,11.897c3.178,3.178,7.404,4.928,11.899,4.928c4.495,0,8.719-1.75,11.897-4.928
			c3.178-3.178,4.93-7.403,4.93-11.897s-1.75-8.721-4.928-11.899C119.377,298.38,115.152,296.63,110.657,296.63z M114.795,317.595
			c-1.106,1.106-2.575,1.715-4.138,1.715c-1.564,0-3.034-0.609-4.14-1.716c-1.106-1.106-1.715-2.575-1.715-4.138
			c0-1.564,0.609-3.034,1.713-4.14c1.106-1.106,2.576-1.715,4.14-1.715c1.564,0,3.033,0.609,4.138,1.715s1.715,2.576,1.715,4.14
			C116.51,315.02,115.902,316.489,114.795,317.595z"/>
		<circle cx="340.521" cy="187.777" r="12.96"/>
		<circle cx="412.883" cy="187.777" r="12.96"/>
		<path d="M556.587,380.599c0,0-112.448-112.789-115.251-115.302c16.114-16.65,25.276-39.017,25.313-62.337
			c11.629-2.787,20.126-13.178,20.126-25.623c0-12.457-8.514-22.858-20.161-25.633c-0.354-18.359-6.282-36.06-16.941-50.817
			l-27.487-86.426l-20.462,9.109L376.132,0l-25.253,23.865l-20.441-8.996l-26.878,86.563c-10.401,14.645-16.191,32.136-16.55,50.224
			c-11.774,2.683-20.381,13.1-20.381,25.682c0,12.568,8.59,22.976,20.347,25.671c0.048,23.426,9.012,45.455,25.261,62.249
			c-2.974,2.669-100.335,100.448-100.335,100.448l-98.954-98.954L45.26,334.555l2.422,3.727
			c25.254,38.867,57.77,71.375,96.641,96.618l3.727,2.42l39.605-39.605c-0.518,2.399-0.793,4.868-0.793,7.381
			c0,9.254,3.603,17.952,10.143,24.492c6.543,6.551,15.243,10.158,24.498,10.158c3.024,0,5.987-0.392,8.837-1.14l9.885,9.884
			c3.636,3.638,8.472,5.64,13.619,5.64s9.983-2.003,13.619-5.64c7.505-7.505,7.505-19.717,0-27.222l-6.648-6.565l19.13-19.214
			v156.16h27.432v60.351H444.54v-60.351h28.804V395.501l34.168,33.801c6.541,6.551,15.284,9.874,24.538,9.874h0.022
			c9.254,0,17.965-3.323,24.504-9.869c6.549-6.543,10.162-15.1,10.162-24.354C566.737,395.698,563.135,387.139,556.587,380.599z
			 M466.485,163.257c5.486,2.384,9.149,7.778,9.149,14.08c0,6.301-3.662,11.696-9.149,14.08V163.257z M286.803,191.505
			c-5.486-2.325-9.368-7.762-9.368-14.169s3.882-11.843,9.368-14.169V191.505z M415.392,29.458l20.436,63.525l-14.147,3.467
			c-13.143,3.236-26.52,5.019-40.236,5.382V44.534L415.392,29.458z M376.228,15.007l14.575,13.424l-14.691,6.54l-14.335-6.309
			L376.228,15.007z M337.188,29.864l33.284,14.686v57.265c-10.973-0.361-23.519-1.8-35.06-4.358l-17.975-3.985L337.188,29.864z
			 M297.776,202.821v-49.378c0-17.945,6.194-35.304,17.343-49.245l17.96,3.972c14.217,3.151,28.83,4.749,43.391,4.749
			c16.132,0,32.263-1.956,47.928-5.813l13.564-3.359c11.387,14.007,17.55,31.525,17.55,49.696v49.378
			c0,22.359-9.456,43.749-26.094,58.685c-14.477,13.015-33.148,20.183-52.65,20.183c-19.524,0-38.234-7.182-52.721-20.22
			c-1.048-0.944-2.114-1.886-3.104-2.875C306.052,243.699,297.776,223.892,297.776,202.821z M421.221,280.653v29.591h-89.155v-29.63
			c13.716,7.835,28.693,12.048,44.615,12.048C392.574,292.662,407.505,288.462,421.221,280.653z M290.918,337.198
			c0-24.885,10.881-48.135,29.545-64.481c0.178,0.144,0.346,44.634,0.346,44.634c-0.516,15.088-13.431,28.782-29.89,29.816V337.198z
			 M193.437,376.414l-46.841,46.841c-34.709-23.217-64.034-52.536-87.317-87.318l53.667-53.669l87.314,87.314L193.437,376.414z
			 M238.253,421.83c-4.477,4.477-10.424,6.942-16.747,6.942c-6.322,0-12.265-2.463-16.738-6.942
			c-4.47-4.47-6.931-10.413-6.931-16.735c0-6.323,2.461-12.266,6.932-16.736l13.165-13.165l34.135,32.82L238.253,421.83z
			 M259.705,440.73c-1.564,1.565-3.644,2.426-5.858,2.426c-2.214,0-4.295-0.861-5.86-2.426L241,433.743
			c1.778-1.214,3.458-2.598,5.013-4.153l7.128-7.128l6.565,6.565C262.931,432.252,262.931,437.503,259.705,440.73z M279.945,337.198
			v42.771l-20.2,20.283l-34.094-32.82l58.608-58.671C281.473,317.85,279.945,327.41,279.945,337.198z M319.143,601.027
			c2.651-10.973,13.002-20.218,25.354-20.218c12.353,0,22.703,9.245,25.354,20.218H319.143z M370.471,580.925
			c-6.858-6.693-15.946-10.839-26.142-10.839c-10.116,0-19.122,4.083-25.98,10.685V551.65h52.121V580.925z M382.181,601.027
			c2.651-10.973,13.002-20.218,25.354-20.218s22.703,9.245,25.354,20.218H382.181z M433.566,580.982
			c-6.858-6.728-15.974-10.896-26.198-10.896c-10.088,0-19.065,4.061-25.924,10.63v-29.067h52.121V580.982z M462.37,540.676H290.918
			V358.163c20.574-0.975,37.75-16.373,40.601-36.947h90.513c2.85,20.574,19.765,36.138,40.339,36.961v182.499H462.37z
			 M462.37,347.192c-15.088-0.867-28.72-14.155-30.092-30.038c0,0,0.472-44.25,0.656-44.399
			c18.697,16.348,29.436,39.588,29.436,64.444V347.192z M473.343,379.983v-42.785c0-9.785-1.385-19.345-4.181-28.434l60.236,60.202
			l-34.193,32.816L473.343,379.983z M548.825,421.831c-4.47,4.476-10.413,6.939-16.734,6.939c-6.322,0-12.264-2.465-16.735-6.942
			l-12.286-12.286l34.13-32.816l11.631,11.633c4.474,4.47,6.939,10.413,6.939,16.734
			C555.769,411.415,553.305,417.358,548.825,421.831z"/>
		<path d="M334.809,439.176h82.297v-85.04h-82.297V439.176z M345.782,365.109h60.351v13.716h-60.351V365.109z M345.782,389.798
			h60.351v38.405h-60.351V389.798z"/>
	</g>
</g>
</svg>